<svg id="visual" viewBox="0 0 900 600" width="900" height="600" xmlns="http://www.w3.org/2000/svg" xmlns:xlink="http://www.w3.org/1999/xlink" version="1.1"><path d="M0 200L129 244L257 165L386 218L514 212L643 181L771 154L900 178L900 0L771 0L643 0L514 0L386 0L257 0L129 0L0 0Z" fill="#c70039"></path><path d="M0 195L129 140L257 176L386 191L514 160L643 125L771 118L900 170L900 0L771 0L643 0L514 0L386 0L257 0L129 0L0 0Z" fill="#ba003c"></path><path d="M0 109L129 94L257 149L386 103L514 148L643 108L771 134L900 108L900 0L771 0L643 0L514 0L386 0L257 0L129 0L0 0Z" fill="#ac033e"></path><path d="M0 75L129 102L257 59L386 108L514 70L643 116L771 95L900 100L900 0L771 0L643 0L514 0L386 0L257 0L129 0L0 0Z" fill="#9e073f"></path><path d="M0 24L129 62L257 38L386 73L514 73L643 64L771 71L900 36L900 0L771 0L643 0L514 0L386 0L257 0L129 0L0 0Z" fill="#900c3f"></path></svg>