<svg id="visual" viewBox="0 0 900 600" width="900" height="600" xmlns="http://www.w3.org/2000/svg" xmlns:xlink="http://www.w3.org/1999/xlink" version="1.1"><path d="M0 372L129 373L257 429L386 367L514 444L643 418L771 414L900 446L900 601L771 601L643 601L514 601L386 601L257 601L129 601L0 601Z" fill="#c70039"></path><path d="M0 457L129 430L257 425L386 437L514 422L643 469L771 439L900 407L900 601L771 601L643 601L514 601L386 601L257 601L129 601L0 601Z" fill="#ba003c"></path><path d="M0 443L129 449L257 450L386 506L514 492L643 492L771 490L900 484L900 601L771 601L643 601L514 601L386 601L257 601L129 601L0 601Z" fill="#ac033e"></path><path d="M0 531L129 538L257 515L386 485L514 536L643 535L771 510L900 538L900 601L771 601L643 601L514 601L386 601L257 601L129 601L0 601Z" fill="#9e073f"></path><path d="M0 569L129 527L257 547L386 538L514 529L643 565L771 569L900 545L900 601L771 601L643 601L514 601L386 601L257 601L129 601L0 601Z" fill="#900c3f"></path></svg>